<?xml version="1.0" encoding="UTF-8" standalone="no" ?>
<!DOCTYPE svg PUBLIC "-//W3C//DTD SVG 1.1//EN" "http://www.w3.org/Graphics/SVG/1.1/DTD/svg11.dtd">
<svg xmlns="http://www.w3.org/2000/svg" xmlns:xlink="http://www.w3.org/1999/xlink" version="1.1" width="179" height="41" viewBox="0 0 179 41" xml:space="preserve">
<desc>Created with Fabric.js 5.2.4</desc>
<defs>
</defs>
<g transform="matrix(1 0 0 1 89.5 20.5)" id="5e6df16a-613c-4a98-85a8-5d746da9be2e"  >
<rect style="stroke: none; stroke-width: 1; stroke-dasharray: none; stroke-linecap: butt; stroke-dashoffset: 0; stroke-linejoin: miter; stroke-miterlimit: 4; fill: rgb(255,255,255); fill-rule: nonzero; opacity: 1; visibility: hidden;" vector-effect="non-scaling-stroke"  x="-89.5" y="-20.5" rx="0" ry="0" width="179" height="41" />
</g>
<g transform="matrix(Infinity NaN NaN Infinity 0 0)" id="97382585-9e11-4f18-8e7c-a4d550fbd9cf"  >
</g>
<g transform="matrix(1 0 0 1 20.63 20.5)" clip-path="url(#CLIPPATH_7)"  >
<clipPath id="CLIPPATH_7" >
	<path transform="matrix(1 0 0 1 0 -0.02) translate(-20, -20.5)" id="a" d="M 0 0 L 40 0 L 40 41 L 0 41 z" stroke-linecap="round" />
</clipPath>
<path style="stroke: none; stroke-width: 1; stroke-dasharray: none; stroke-linecap: butt; stroke-dashoffset: 0; stroke-linejoin: miter; stroke-miterlimit: 4; fill: rgb(242,92,84); fill-rule: evenodd; opacity: 1;" vector-effect="non-scaling-stroke"  transform=" translate(-20, -20.52)" d="M 13.715 0.516 C 11.458 0.516 9.295 1.412 7.699 3.008 L 0 10.707 L 0 14.231000000000002 C 0 16.721000000000004 1.07 18.961000000000002 2.774 20.516000000000002 C 1.0043806747538695 22.126478221861273 -0.003008584472427245 24.409264409134703 8.881784197001252e-16 26.801999999999996 L 0 30.326 L 7.699 38.024 C 9.34224057652195 39.66750519147016 11.586343362674873 40.56715782708531 13.909813116530174 40.51389236325414 C 16.233282870385477 40.46062689942298 18.43380075700674 39.45908148844629 20 37.742 C 21.566349570522075 39.45882190451484 23.766817831934162 40.46018128626407 26.090197146666746 40.513444676781475 C 28.413576461399334 40.566708067298876 30.65762114953023 39.66723899135984 32.301 38.023999999999994 L 40 30.326 L 40 26.802 C 40 24.311999999999998 38.93 22.072 37.226 20.516 C 38.9953613293127 18.905755955471456 40.00272649846784 16.62338750264521 40 14.231000000000002 L 40 10.707 L 32.301 3.0070000000000006 C 30.65748676705526 1.3638872492591445 28.413363893405144 0.46459591648129717 26.089983143280534 0.5180482172930434 C 23.766602393155924 0.5715005181047896 21.566210607518762 1.5730435091688169 19.999999999999993 3.290000000000007 C 18.389755955471454 1.5206386706872965 16.1073875026452 0.513273501532161 13.714999999999993 0.5160000000000009 Z M 25.759 20.516 C 25.662951928846827 20.428163752452694 25.568927296225148 20.33814016802768 25.476999999999997 20.246 L 20 14.77 L 14.523 20.247 C 14.431072703774849 20.339140168027683 14.337048071153173 20.429163752452695 14.241 20.517 C 14.337 20.604 14.431 20.694 14.523 20.785999999999998 L 20 26.262 L 25.477 20.786 C 25.569 20.693 25.663 20.604000000000003 25.759 20.516000000000002 Z M 22.222 30.326 L 22.222 32.008 C 22.221575088769214 33.651527737612156 23.211345230671064 35.13343833991213 24.729688371805754 35.7625787937214 C 26.24803151294044 36.39171924753067 27.995860580500096 36.0441598747567 29.158 34.882000000000005 L 35.556 28.485000000000007 L 35.556 26.802000000000007 C 35.55682994670443 25.158032721932756 34.56690207841623 23.675572514807257 33.048120652794246 23.046341173126763 C 31.52933922717226 22.41710983144627 29.781045406300443 22.76512443749841 28.618999999999996 23.928000000000008 L 22.221999999999994 30.326000000000008 Z M 17.778000000000002 30.326 L 11.381000000000002 23.928 C 10.219083214719442 22.765253459623292 8.471032112699106 22.417175485070622 6.952341593488681 23.04615023808944 C 5.433651074278256 23.67512499110826 4.443574874159812 25.157214748714804 4.444000000000002 26.801 L 4.444000000000002 28.485000000000003 L 10.841000000000001 34.882000000000005 C 12.002916785280561 36.044746540376714 13.750967887300897 36.39282451492939 15.269658406511322 35.76384976191056 C 16.78834892572175 35.13487500889175 17.778425125840194 33.6527852512852 17.778000000000002 32.00900000000001 L 17.778000000000002 30.326000000000008 Z M 17.778000000000002 9.024000000000001 L 17.778000000000002 10.707 L 11.381000000000002 17.104 C 10.219083214719442 18.266746540376708 8.471032112699106 18.614824514929378 6.95234159348868 17.985849761910558 C 5.433651074278255 17.35687500889174 4.443574874159812 15.874785251285196 4.444000000000002 14.231 L 4.444000000000002 12.547999999999998 L 10.841000000000001 6.150999999999998 C 12.002916785280561 4.988253459623289 13.750967887300895 4.640175485070618 15.269658406511322 5.269150238089436 C 16.78834892572175 5.898124991108255 17.77842512584019 7.380214748714797 17.778000000000002 9.023999999999994 Z M 28.619 17.104 L 22.222 10.706999999999999 L 22.222 9.024 C 22.22197965672694 7.380654272309892 23.211898066319474 5.89911391758447 24.730150409011333 5.2702299815184785 C 26.248402751703196 4.6413460454524875 27.995989263771357 4.9889689203723755 29.158 6.150999999999999 L 35.556 12.547999999999998 L 35.556 14.230999999999998 C 35.556425125840185 15.874785251285195 34.56634892572175 17.35687500889174 33.04765840651132 17.985849761910558 C 31.528967887300894 18.61482451492938 29.78091678528056 18.266746540376708 28.619 17.104 Z" stroke-linecap="round" />
</g>
<g transform="matrix(1 0 0 1 116.66 20.13)"  >
<path style="stroke: none; stroke-width: 1; stroke-dasharray: none; stroke-linecap: butt; stroke-dashoffset: 0; stroke-linejoin: miter; stroke-miterlimit: 4; fill: rgb(199,199,199); fill-rule: nonzero; opacity: 1;" vector-effect="non-scaling-stroke"  transform=" translate(-116.03, -20.15)" d="M 54.318 29 L 54.318 12.2 L 65.80199999999999 12.2 L 65.80199999999999 15.296 L 57.87 15.296 L 57.87 18.896 L 64.59 18.896 L 64.59 21.764 L 57.870000000000005 21.764 L 57.870000000000005 25.868 L 65.89800000000001 25.868 L 65.89800000000001 29 L 54.31800000000001 29 Z M 67.136 29.024 L 71.50399999999999 22.988 L 67.36399999999999 16.88 L 71.79199999999999 16.88 L 73.93999999999998 20.564 L 76.02799999999998 16.88 L 80.34799999999998 16.88 L 76.32799999999999 22.915999999999997 L 80.66 29 L 76.172 29 L 73.82 25.304 L 71.43199999999999 28.964 L 67.13599999999998 29.023999999999997 Z M 87.429 29.36 C 86.133 29.36 85.10900000000001 28.996 84.357 28.268 C 83.613 27.532 83.241 26.424 83.241 24.944000000000003 L 83.241 13.388 L 86.745 13.388 L 86.745 16.88 L 89.757 16.88 L 89.757 19.688 L 86.745 19.688 L 86.745 24.308 C 86.745 25.02 86.893 25.52 87.18900000000001 25.808 C 87.48500000000001 26.096 87.881 26.24 88.37700000000001 26.24 C 88.63300000000001 26.24 88.88100000000001 26.212 89.12100000000001 26.156 C 89.36900000000001 26.092 89.59700000000001 26.003999999999998 89.805 25.892 L 90.29700000000001 28.652 C 89.93700000000001 28.852 89.50500000000001 29.02 89.001 29.156000000000002 C 88.48851468297428 29.294164731107184 87.95977581554209 29.362779698636555 87.429 29.360000000000003 Z M 80.781 19.688 L 80.781 16.88 L 83.589 16.88 L 83.589 19.688 L 80.78 19.688 Z M 97.90700000000001 29.36 C 96.58700000000002 29.36 95.427 29.092 94.427 28.556 C 93.45126197541705 28.043260221189716 92.64014090845494 27.265415915949124 92.087 26.312 C 91.527 25.352 91.247 24.228 91.247 22.94 C 91.247 22.004 91.407 21.144000000000002 91.727 20.36 C 92.04019945781171 19.5979275177249 92.505707526381 18.907832223091475 93.095 18.332 C 93.69085601489144 17.753505203680245 94.3968105595819 17.300551709688104 95.171 17 C 95.971 16.68 96.84700000000001 16.52 97.799 16.52 C 98.84700000000001 16.52 99.775 16.704 100.58300000000001 17.072 C 101.3723482179251 17.419613493734932 102.06753567737054 17.950259542660742 102.61100000000002 18.619999999999997 C 103.14700000000002 19.275999999999996 103.51900000000002 20.048 103.72700000000002 20.935999999999996 C 103.94300000000001 21.823999999999998 103.96300000000002 22.787999999999997 103.78700000000002 23.827999999999996 L 94.49900000000002 23.827999999999996 C 94.49900000000002 24.387999999999995 94.64300000000003 24.875999999999998 94.93100000000003 25.291999999999994 C 95.22700000000003 25.707999999999995 95.63900000000002 26.035999999999994 96.16700000000003 26.275999999999996 C 96.70300000000003 26.507999999999996 97.32700000000003 26.623999999999995 98.03900000000003 26.623999999999995 C 98.74300000000002 26.623999999999995 99.41500000000003 26.527999999999995 100.05500000000004 26.335999999999995 C 100.70126219445882 26.140986871645744 101.31276066515176 25.84536178316505 101.86700000000003 25.459999999999994 L 103.03100000000003 27.859999999999992 C 102.64700000000003 28.15599999999999 102.16700000000003 28.41999999999999 101.59100000000004 28.651999999999994 C 101.01500000000004 28.875999999999994 100.40300000000003 29.047999999999995 99.75500000000004 29.167999999999992 C 99.14682995732153 29.29272730121142 98.52782118061107 29.35703990138913 97.90700000000004 29.359999999999992 Z M 94.70300000000002 21.416 L 100.42700000000002 21.416 C 100.40300000000002 20.704 100.15100000000002 20.14 99.67100000000002 19.724 C 99.19900000000003 19.308 98.54700000000003 19.1 97.71500000000002 19.1 C 96.88300000000002 19.1 96.19100000000002 19.308 95.63900000000002 19.724 C 95.09500000000003 20.14 94.78300000000003 20.704 94.70300000000002 21.416 Z M 105.83 29 L 105.83 16.88 L 109.334 16.88 L 109.334 18.247999999999998 C 109.798 17.639999999999997 110.346 17.199999999999996 110.97800000000001 16.927999999999997 C 111.61136749244875 16.657339630070858 112.29322629242392 16.518518077980108 112.98200000000001 16.519999999999996 C 114.11000000000001 16.519999999999996 115.03800000000001 16.743999999999996 115.76600000000002 17.191999999999997 C 116.50200000000002 17.631999999999998 117.04600000000002 18.203999999999997 117.39800000000002 18.907999999999998 C 117.75800000000002 19.612 117.93800000000003 20.351999999999997 117.93800000000003 21.127999999999997 L 117.93800000000003 29 L 114.43400000000003 29 L 114.43400000000003 22.22 C 114.43400000000003 21.451999999999998 114.21800000000003 20.84 113.78600000000003 20.384 C 113.36200000000002 19.928 112.74600000000002 19.7 111.93800000000003 19.7 C 111.42600000000003 19.7 110.97400000000003 19.816 110.58200000000004 20.048 C 110.19000000000004 20.272 109.88200000000003 20.587999999999997 109.65800000000003 20.996 C 109.44200000000004 21.404 109.33400000000003 21.875999999999998 109.33400000000003 22.412 L 109.33400000000003 29 L 105.83000000000003 29 Z M 125.12 29.348 C 124.04 29.348 123.04400000000001 29.208 122.132 28.927999999999997 C 121.22 28.639999999999997 120.44000000000001 28.247999999999998 119.792 27.752 L 120.932 25.304 C 121.56576411318076 25.736874521605223 122.25629163991523 26.080119198636975 122.98400000000001 26.323999999999998 C 123.72000000000001 26.563999999999997 124.42800000000001 26.683999999999997 125.108 26.683999999999997 C 125.78 26.683999999999997 126.296 26.583999999999996 126.656 26.383999999999997 C 127.024 26.176 127.20800000000001 25.879999999999995 127.20800000000001 25.495999999999995 C 127.20800000000001 25.151999999999994 127.04400000000001 24.899999999999995 126.71600000000001 24.739999999999995 C 126.39600000000002 24.571999999999996 125.772 24.391999999999996 124.84400000000001 24.199999999999996 C 123.24400000000001 23.911999999999995 122.07600000000001 23.459999999999997 121.34 22.843999999999994 C 120.604 22.219999999999995 120.236 21.363999999999994 120.236 20.275999999999993 C 120.236 19.507999999999992 120.44800000000001 18.831999999999994 120.872 18.247999999999994 C 121.304 17.663999999999994 121.896 17.211999999999993 122.648 16.891999999999992 C 123.39999999999999 16.563999999999993 124.264 16.39999999999999 125.24 16.39999999999999 C 126.19999999999999 16.39999999999999 127.104 16.531999999999993 127.952 16.795999999999992 C 128.808 17.051999999999992 129.54 17.411999999999992 130.148 17.87599999999999 L 129.04399999999998 20.33599999999999 C 128.70456458527363 20.068128412400384 128.33385006278345 19.842476094362894 127.93999999999998 19.663999999999987 C 127.5252754784841 19.46969696174988 127.09074739742965 19.320830859907154 126.64399999999998 19.21999999999999 C 126.21255142558653 19.11009582373952 125.76922354364832 19.053672275129202 125.32399999999998 19.051999999999992 C 124.73999999999998 19.051999999999992 124.26799999999999 19.151999999999994 123.90799999999999 19.351999999999993 C 123.54799999999999 19.543999999999993 123.36799999999998 19.815999999999992 123.36799999999998 20.167999999999992 C 123.36799999999998 20.519999999999992 123.53199999999998 20.77999999999999 123.85999999999999 20.947999999999993 C 124.18799999999999 21.115999999999993 124.79999999999998 21.299999999999994 125.69599999999998 21.499999999999993 C 127.36799999999998 21.851999999999993 128.55599999999998 22.319999999999993 129.26 22.903999999999993 C 129.97199999999998 23.479999999999993 130.328 24.291999999999994 130.328 25.339999999999993 C 130.328 26.147999999999993 130.108 26.851999999999993 129.668 27.45199999999999 C 129.23600000000002 28.051999999999992 128.62800000000001 28.519999999999992 127.84400000000001 28.85599999999999 C 127.06800000000001 29.18399999999999 126.16000000000001 29.347999999999992 125.12 29.347999999999992 Z M 132.53300000000002 29 L 132.53300000000002 16.88 L 136.037 16.88 L 136.037 29 L 132.53300000000002 29 Z M 134.28500000000003 14.96 C 133.73189513023235 14.971125272592266 133.19392033740888 14.77899141801246 132.77300000000002 14.420000000000002 C 132.34900000000002 14.052000000000001 132.13700000000003 13.564000000000002 132.13700000000003 12.956000000000001 C 132.13700000000003 12.340000000000002 132.34900000000002 11.852 132.77300000000002 11.492 C 133.19070291384367 11.126180191211374 133.729854639953 10.929347021361936 134.28500000000003 10.940000000000001 C 134.84014536004705 10.929347021361936 135.37929708615638 11.126180191211375 135.79700000000003 11.492 C 136.22100000000003 11.852 136.43300000000002 12.340000000000002 136.43300000000002 12.956000000000001 C 136.43300000000002 13.564000000000002 136.22100000000003 14.052000000000001 135.79700000000003 14.420000000000002 C 135.37607966259117 14.77899141801246 134.8381048697677 14.971125272592266 134.28500000000003 14.96 Z M 144.64700000000002 29.36 C 143.34300000000002 29.36 142.187 29.067999999999998 141.17900000000003 28.483999999999998 C 140.1985959167043 27.927072718499872 139.37981747887267 27.124835259210286 138.80300000000003 26.156 C 138.23504502780943 25.18008901299745 137.94071614666709 24.069101123615123 137.95100000000002 22.939999999999998 C 137.95100000000002 22.083999999999996 138.115 21.272 138.443 20.503999999999998 C 138.76652999660632 19.734565783131632 139.23968713831954 19.037066893192325 139.835 18.452 C 140.435 17.851999999999997 141.143 17.38 141.959 17.035999999999998 C 142.775 16.691999999999997 143.671 16.519999999999996 144.647 16.519999999999996 C 145.951 16.519999999999996 147.10299999999998 16.811999999999998 148.10299999999998 17.395999999999997 C 149.08404501787493 17.95324947417216 149.899769133526 18.760692126720187 150.46699999999998 19.735999999999997 C 151.04299999999998 20.703999999999997 151.331 21.772 151.331 22.939999999999998 C 151.331 23.787999999999997 151.167 24.599999999999998 150.839 25.375999999999998 C 150.51368616368137 26.148002089130905 150.04085013504957 26.849103786757375 149.447 27.439999999999998 C 148.8412394433287 28.041183135260734 148.1237811258425 28.51812985768054 147.335 28.843999999999998 C 146.519 29.188 145.62300000000002 29.36 144.64700000000002 29.36 Z M 144.64700000000002 26.323999999999998 C 145.26300000000003 26.323999999999998 145.81500000000003 26.188 146.30300000000003 25.915999999999997 C 146.79100000000003 25.635999999999996 147.17500000000004 25.243999999999996 147.455 24.74 C 147.735 24.227999999999998 147.875 23.628 147.875 22.939999999999998 C 147.875 22.243999999999996 147.735 21.644 147.455 21.139999999999997 C 147.19617362887345 20.649472844342316 146.80002908496576 20.244988415299726 146.31500000000003 19.975999999999996 C 145.82700000000003 19.695999999999994 145.27100000000002 19.555999999999994 144.64700000000002 19.555999999999994 C 144.02300000000002 19.555999999999994 143.46300000000002 19.695999999999994 142.967 19.975999999999996 C 142.479 20.247999999999994 142.095 20.635999999999996 141.81500000000003 21.139999999999997 C 141.54300000000003 21.644 141.40700000000004 22.243999999999996 141.40700000000004 22.939999999999998 C 141.40700000000004 23.636 141.54700000000003 24.235999999999997 141.82700000000003 24.74 C 142.10700000000003 25.244 142.491 25.636 142.979 25.915999999999997 C 143.467 26.187999999999995 144.02300000000002 26.323999999999998 144.64700000000002 26.323999999999998 Z M 153.235 29 L 153.235 16.88 L 156.739 16.88 L 156.739 18.247999999999998 C 157.203 17.639999999999997 157.751 17.199999999999996 158.383 16.927999999999997 C 159.01636749244875 16.65733963007086 159.69822629242393 16.518518077980108 160.387 16.519999999999996 C 161.515 16.519999999999996 162.443 16.743999999999996 163.171 17.191999999999997 C 163.90699999999998 17.631999999999998 164.451 18.203999999999997 164.803 18.907999999999998 C 165.163 19.612 165.343 20.351999999999997 165.343 21.127999999999997 L 165.343 29 L 161.839 29 L 161.839 22.22 C 161.839 21.451999999999998 161.623 20.84 161.191 20.384 C 160.767 19.928 160.151 19.7 159.343 19.7 C 158.831 19.7 158.379 19.816 157.987 20.048 C 157.595 20.272 157.287 20.587999999999997 157.063 20.996 C 156.84699999999998 21.404 156.73899999999998 21.875999999999998 156.73899999999998 22.412 L 156.73899999999998 29 L 153.23499999999999 29 Z M 172.526 29.348 C 171.446 29.348 170.45000000000002 29.208 169.538 28.927999999999997 C 168.626 28.639999999999997 167.846 28.247999999999998 167.198 27.752 L 168.338 25.304 C 168.97176411318074 25.736874521605223 169.66229163991522 26.080119198636975 170.39 26.323999999999998 C 171.12599999999998 26.563999999999997 171.83399999999997 26.683999999999997 172.51399999999998 26.683999999999997 C 173.18599999999998 26.683999999999997 173.70199999999997 26.583999999999996 174.06199999999998 26.383999999999997 C 174.42999999999998 26.176 174.61399999999998 25.879999999999995 174.61399999999998 25.495999999999995 C 174.61399999999998 25.151999999999994 174.45 24.899999999999995 174.12199999999999 24.739999999999995 C 173.802 24.571999999999996 173.178 24.391999999999996 172.24999999999997 24.199999999999996 C 170.64999999999998 23.911999999999995 169.48199999999997 23.459999999999997 168.74599999999998 22.843999999999994 C 168.01 22.219999999999995 167.64199999999997 21.363999999999994 167.64199999999997 20.275999999999993 C 167.64199999999997 19.507999999999992 167.85399999999996 18.831999999999994 168.27799999999996 18.247999999999994 C 168.70999999999995 17.663999999999994 169.30199999999996 17.211999999999993 170.05399999999997 16.891999999999992 C 170.80599999999998 16.563999999999993 171.67 16.39999999999999 172.646 16.39999999999999 C 173.606 16.39999999999999 174.51 16.531999999999993 175.35799999999998 16.795999999999992 C 176.21399999999997 17.051999999999992 176.94599999999997 17.411999999999992 177.55399999999997 17.87599999999999 L 176.44999999999996 20.33599999999999 C 176.1105645852736 20.068128412400384 175.73985006278343 19.842476094362894 175.34599999999995 19.66399999999999 C 174.93127547848405 19.469696961749882 174.49674739742963 19.32083085990715 174.04999999999995 19.21999999999999 C 173.6185514255865 19.11009582373952 173.1752235436483 19.053672275129202 172.72999999999996 19.051999999999992 C 172.14599999999996 19.051999999999992 171.67399999999995 19.151999999999994 171.31399999999996 19.351999999999993 C 170.95399999999995 19.543999999999993 170.77399999999997 19.815999999999992 170.77399999999997 20.167999999999992 C 170.77399999999997 20.519999999999992 170.93799999999996 20.77999999999999 171.26599999999996 20.947999999999993 C 171.59399999999997 21.115999999999993 172.20599999999996 21.299999999999994 173.10199999999998 21.499999999999993 C 174.77399999999997 21.851999999999993 175.962 22.319999999999993 176.66599999999997 22.903999999999993 C 177.37799999999996 23.479999999999993 177.73399999999998 24.291999999999994 177.73399999999998 25.339999999999993 C 177.73399999999998 26.147999999999993 177.51399999999998 26.851999999999993 177.07399999999998 27.45199999999999 C 176.642 28.051999999999992 176.034 28.519999999999992 175.24999999999997 28.85599999999999 C 174.47399999999996 29.18399999999999 173.56599999999997 29.347999999999992 172.52599999999998 29.347999999999992 Z" stroke-linecap="round" />
</g>
<g transform="matrix(NaN NaN NaN NaN 0 0)"  >
<g style=""   >
</g>
</g>
<g transform="matrix(NaN NaN NaN NaN 0 0)"  >
<g style=""   >
</g>
</g>
<g transform="matrix(NaN NaN NaN NaN 0 0)"  >
<g style=""   >
</g>
</g>
<g transform="matrix(NaN NaN NaN NaN 0 0)"  >
<g style=""   >
</g>
</g>
</svg>